<?xml version="1.0" encoding="utf-8"?>
<!-- Generator: Adobe Illustrator 24.2.2, SVG Export Plug-In . SVG Version: 6.00 Build 0)  -->
<svg version="1.1" id="Layer_1" xmlns="http://www.w3.org/2000/svg" xmlns:xlink="http://www.w3.org/1999/xlink" x="0px" y="0px"
	 viewBox="0 0 184 23" style="enable-background:new 0 0 184 23;" xml:space="preserve">
<style type="text/css">
	.st0{fill:#FFFFFF;}
</style>
<g id="Layer_2_1_">
	<g id="Layer_1-2">
		<polygon class="st0" points="71.3,4.6 71.3,0 43.7,0 39.1,0 39.1,4.6 39.1,9.2 39.1,13.8 39.1,18.4 39.1,23 43.7,23 71.3,23 
			71.3,18.4 43.7,18.4 43.7,13.8 71.3,13.8 71.3,9.2 43.7,9.2 43.7,4.6 		"/>
		<polygon class="st0" points="108.1,0 94.3,0 89.7,0 75.9,0 75.9,4.6 89.7,4.6 89.7,23 94.3,23 94.3,4.6 108.1,4.6 		"/>
		<polygon class="st0" points="165.6,4.1 178.4,23 184,23 168.4,0 162.8,0 147.2,23 152.8,23 		"/>
		<polygon class="st0" points="27.6,0 27.6,18.8 6.8,0 0,0 0,23 4.6,23 4.6,4.2 25.4,23 32.2,23 32.2,0 		"/>
		<path class="st0" d="M144.9,6.9L144.9,6.9c0-3.8-3.1-6.9-6.9-6.9h-25.3v23h4.6v-9.2h10.6l10.1,9.2h6.9l-10.1-9.2h3.2
			C141.8,13.8,144.9,10.7,144.9,6.9z M117.3,9.2V4.6H138c1.3,0,2.3,1,2.3,2.3l0,0c0,1.3-1,2.3-2.3,2.3H117.3z"/>
	</g>
</g>
</svg>
