<?xml version="1.0" encoding="utf-8"?>
<!-- Generator: Adobe Illustrator 24.2.2, SVG Export Plug-In . SVG Version: 6.00 Build 0)  -->
<svg version="1.1" id="Layer_1" xmlns="http://www.w3.org/2000/svg" xmlns:xlink="http://www.w3.org/1999/xlink" x="0px" y="0px"
	 viewBox="0 0 200 23" style="enable-background:new 0 0 200 23;" xml:space="preserve">
<style type="text/css">
	.st0{fill:#FFFFFF;}
</style>
<g>
	<polygon class="st0" points="79.5,4.5 79.5,0 52.3,0 47.7,0 47.7,4.5 47.7,9.1 47.7,13.6 47.7,18.2 47.7,22.7 52.3,22.7 79.5,22.7 
		79.5,18.2 52.3,18.2 52.3,13.6 79.5,13.6 79.5,9.1 52.3,9.1 52.3,4.5 	"/>
	<polygon class="st0" points="115.9,0 102.3,0 97.7,0 84.1,0 84.1,4.5 97.7,4.5 97.7,22.7 102.3,22.7 102.3,4.5 115.9,4.5 	"/>
	<polygon class="st0" points="172.7,4 185.4,22.7 190.9,22.7 175.5,0 170,0 154.5,22.7 160,22.7 	"/>
	<polygon class="st0" points="36.4,0 36.4,18.6 15.9,0 9.1,0 9.1,22.7 13.6,22.7 13.6,4.1 34.1,22.7 40.9,22.7 40.9,0 	"/>
	<path class="st0" d="M152.3,6.8L152.3,6.8c0-3.8-3.1-6.8-6.8-6.8H125h-4.5v4.5v4.5v4.5v9.1h4.5v-9.1h10.5l10,9.1h6.8l-10-9.1h3.2
		C149.2,13.6,152.3,10.6,152.3,6.8z M125,9.1V4.5h20.5c1.3,0,2.3,1,2.3,2.3v0c0,1.3-1,2.3-2.3,2.3H125z"/>
</g>
</svg>
